<?xml version="1.0" encoding="utf-8"?>
<!-- Generator: Adobe Illustrator 17.1.0, SVG Export Plug-In . SVG Version: 6.00 Build 0)  -->
<!DOCTYPE svg PUBLIC "-//W3C//DTD SVG 1.1//EN" "http://www.w3.org/Graphics/SVG/1.1/DTD/svg11.dtd">
<svg version="1.1" id="Layer_1" xmlns:sketch="http://www.bohemiancoding.com/sketch/ns"
	 xmlns="http://www.w3.org/2000/svg" xmlns:xlink="http://www.w3.org/1999/xlink" x="0px" y="0px" viewBox="0 0 48 48"
	 enable-background="new 0 0 48 48" xml:space="preserve">
<title>Instagram-black</title>
<desc>Created with Sketch.</desc>
<path fill="#0B0B0A" d="M42.3,0H5.7C2.6,0,0,2.5,0,5.7v36.6C0,45.5,2.6,48,5.7,48h36.6c3.2,0,5.7-2.5,5.7-5.7V5.7
	C48,2.5,45.4,0,42.3,0z M34.5,7.5C34.5,6.7,35.2,6,36,6h4.5C41.3,6,42,6.7,42,7.5V12c0,0.8-0.7,1.5-1.5,1.5H36
	c-0.8,0-1.5-0.7-1.5-1.5V7.5z M24.1,14.8c5.1,0,9.2,4.1,9.2,9.2c0,5.1-4.1,9.2-9.2,9.2c-5.1,0-9.2-4.1-9.2-9.2
	C14.8,19,19,14.8,24.1,14.8z M43.5,42c0,0.8-0.7,1.5-1.5,1.5H6c-0.8,0-1.5-0.7-1.5-1.5V19.5h6c-0.8,1.1-1,3.2-1,4.6
	c0,8,6.6,14.6,14.6,14.6c8.1,0,14.6-6.5,14.6-14.6c0-1.3-0.2-3.4-1.2-4.6h6V42z"/>
</svg>
