<?xml version="1.0" encoding="utf-8"?>
<!-- Generator: Adobe Illustrator 17.1.0, SVG Export Plug-In . SVG Version: 6.00 Build 0)  -->
<!DOCTYPE svg PUBLIC "-//W3C//DTD SVG 1.1//EN" "http://www.w3.org/Graphics/SVG/1.1/DTD/svg11.dtd">
<svg version="1.1" id="Layer_1" xmlns:sketch="http://www.bohemiancoding.com/sketch/ns"
	 xmlns="http://www.w3.org/2000/svg" xmlns:xlink="http://www.w3.org/1999/xlink" x="0px" y="0px" viewBox="0 0 48 40"
	 enable-background="new 0 0 48 40" xml:space="preserve">
<title>Twitter-black</title>
<desc>Created with Sketch.</desc>
<path fill="#0B0B0A" d="M48,4.7c-1.8,0.8-3.7,1.3-5.7,1.6c2-1.2,3.6-3.2,4.3-5.6c-1.9,1.2-4,2-6.3,2.4c-1.8-2-4.4-3.2-7.2-3.2
	c-5.4,0-9.8,4.5-9.8,10.1c0,0.8,0.1,1.6,0.3,2.3C15.5,12,8.2,8,3.3,1.8C2.5,3.3,2,5.1,2,6.9c0,3.5,1.7,6.6,4.4,8.4
	c-1.6,0-3.1-0.5-4.5-1.3v0.1c0,4.9,3.4,9,7.9,9.9c-0.8,0.2-1.7,0.4-2.6,0.4c-0.6,0-1.3-0.1-1.9-0.2c1.3,4,4.9,6.9,9.2,7
	C11.2,34,7,35.6,2.3,35.6c-0.8,0-1.6,0-2.3-0.1C4.4,38.3,9.5,40,15.1,40c18.1,0,28-15.4,28-28.7c0-0.4,0-0.9,0-1.3
	C45,8.5,46.7,6.8,48,4.7z"/>
</svg>
